<?xml version="1.0" encoding="UTF-8"?>
<svg xmlns="http://www.w3.org/2000/svg" viewBox="0 0 64 64" width="64" height="64">
  <defs>
    <linearGradient id="g" x1="0" x2="1" y1="0" y2="1">
      <stop offset="0%" stop-color="#0ea5e9"/>
      <stop offset="100%" stop-color="#0369a1"/>
    </linearGradient>
  </defs>
  <rect width="64" height="64" rx="8" fill="#052033"/>
  <g transform="translate(8,8) scale(0.75)" fill="none" stroke="url(#g)" stroke-width="2" stroke-linecap="round" stroke-linejoin="round">
    <!-- stylized brain / circuit lines -->
    <path d="M14 6c-4 0-8 4-8 8s4 8 8 8c2 0 3-1 4-2"/>
    <path d="M30 6c4 0 8 4 8 8s-4 8-8 8c-2 0-3-1-4-2"/>
    <path d="M22 6v28"/>
    <path d="M18 8l-6-4"/>
    <path d="M26 8l6-4"/>
    <circle cx="10" cy="6" r="1.5" fill="#0ea5e9" stroke="none"/>
    <circle cx="34" cy="6" r="1.5" fill="#0ea5e9" stroke="none"/>
    <circle cx="22" cy="22" r="1.8" fill="#0369a1" stroke="none"/>
    <circle cx="14" cy="18" r="1.4" fill="#0ea5e9" stroke="none"/>
    <circle cx="30" cy="18" r="1.4" fill="#0ea5e9" stroke="none"/>
  </g>
</svg>
